<?xml version="1.0" encoding="UTF-8" standalone="no"?>
<svg
   xmlns:dc="http://purl.org/dc/elements/1.1/"
   xmlns:cc="http://creativecommons.org/ns#"
   xmlns:rdf="http://www.w3.org/1999/02/22-rdf-syntax-ns#"
   xmlns:svg="http://www.w3.org/2000/svg"
   xmlns="http://www.w3.org/2000/svg"
   xmlns:xlink="http://www.w3.org/1999/xlink"
   xmlns:sodipodi="http://sodipodi.sourceforge.net/DTD/sodipodi-0.dtd"
   xmlns:inkscape="http://www.inkscape.org/namespaces/inkscape"
   sodipodi:docname="s6.svg"
   inkscape:version="1.0 (1.0+r73+1)"
   id="svg8"
   version="1.1"
   viewBox="0 0 210 297"
   height="297mm"
   width="210mm">
  <defs
     id="defs2" />
  <sodipodi:namedview
     inkscape:window-maximized="0"
     inkscape:window-y="0"
     inkscape:window-x="0"
     inkscape:window-height="700"
     inkscape:window-width="1366"
     inkscape:snap-global="false"
     showgrid="false"
     inkscape:document-rotation="0"
     inkscape:current-layer="layer1"
     inkscape:document-units="mm"
     inkscape:cy="477.49215"
     inkscape:cx="395.00705"
     inkscape:zoom="0.6298551"
     inkscape:pageshadow="2"
     inkscape:pageopacity="0.0"
     borderopacity="1.0"
     bordercolor="#666666"
     pagecolor="#ffffff"
     id="base" />
  <metadata
     id="metadata5">
    <rdf:RDF>
      <cc:Work
         rdf:about="">
        <dc:format>image/svg+xml</dc:format>
        <dc:type
           rdf:resource="http://purl.org/dc/dcmitype/StillImage" />
        <dc:title></dc:title>
      </cc:Work>
    </rdf:RDF>
  </metadata>
  <g
     id="layer1"
     inkscape:groupmode="layer"
     inkscape:label="Layer 1">
    <rect
       ry="0.97117972"
       y="17.030975"
       x="18.427242"
       height="61.03186"
       width="76.116745"
       id="rect12732"
       style="font-variation-settings:normal;opacity:1;vector-effect:none;fill:none;fill-opacity:1;fill-rule:evenodd;stroke:#000000;stroke-width:0.245576;stroke-linecap:butt;stroke-linejoin:miter;stroke-miterlimit:4;stroke-dasharray:none;stroke-dashoffset:0;stroke-opacity:1;stop-color:#000000;stop-opacity:1" />
    <path
       id="path12761"
       d="m 47.073373,137.59494 -22.104108,10.54881 21.154798,11.125 z"
       style="font-variation-settings:normal;opacity:1;vector-effect:none;fill:none;fill-opacity:1;stroke:#000000;stroke-width:0.508342;stroke-linecap:butt;stroke-linejoin:miter;stroke-miterlimit:4;stroke-dasharray:none;stroke-dashoffset:0;stroke-opacity:1;stop-color:#000000;stop-opacity:1" />
    <path
       id="path12763"
       d="m 134.19927,136.67074 -0.44989,23.17864 21.06125,-12.78327 z"
       style="font-variation-settings:normal;opacity:1;vector-effect:none;fill:none;fill-opacity:1;stroke:#000000;stroke-width:0.4579;stroke-linecap:butt;stroke-linejoin:miter;stroke-miterlimit:4;stroke-dasharray:none;stroke-dashoffset:0;stroke-opacity:1;stop-color:#000000;stop-opacity:1" />
    <path
       id="rect13427"
       style="font-variation-settings:normal;opacity:1;vector-effect:none;fill:none;fill-opacity:1;fill-rule:evenodd;stroke:#000000;stroke-width:0.407339;stroke-linecap:butt;stroke-linejoin:miter;stroke-miterlimit:4;stroke-dasharray:none;stroke-dashoffset:0;stroke-opacity:1;stop-color:#000000;stop-opacity:1"
       d="m 85.878521,194.52253 c -0.477518,0 -0.861963,0.38445 -0.861963,0.86197 v 1.31464 H 84.24193 c -0.508971,0 -0.918808,0.40984 -0.918808,0.91881 0,0.50897 0.409837,0.91881 0.918808,0.91881 h 0.774628 v 1.04748 c 0,0.47752 0.384445,0.86196 0.861963,0.86196 0.477517,0 0.861965,-0.38444 0.861965,-0.86196 v -1.04748 h 0.890899 c 0.508971,0 0.918292,-0.40984 0.918292,-0.91881 0,-0.50897 -0.409321,-0.91881 -0.918292,-0.91881 h -0.890899 v -1.31464 c -3e-6,-0.47752 -0.384448,-0.86197 -0.861965,-0.86197 z" />
    <g
       id="g13453"
       transform="translate(37.589295,180.97427)">
      <circle
         r="2.7692454"
         cy="27.34408"
         cx="47.213371"
         id="path13431"
         style="font-variation-settings:normal;opacity:1;vector-effect:none;fill:none;fill-opacity:1;fill-rule:evenodd;stroke:#000000;stroke-width:0.4;stroke-linecap:butt;stroke-linejoin:miter;stroke-miterlimit:4;stroke-dasharray:none;stroke-dashoffset:0;stroke-opacity:1;stop-color:#000000;stop-opacity:1" />
      <circle
         r="1.2404824"
         cy="27.136316"
         cx="46.757011"
         id="path13433"
         style="font-variation-settings:normal;opacity:1;vector-effect:none;fill:none;fill-opacity:1;fill-rule:evenodd;stroke:#000000;stroke-width:0.4;stroke-linecap:butt;stroke-linejoin:miter;stroke-miterlimit:4;stroke-dasharray:none;stroke-dashoffset:0;stroke-opacity:1;stop-color:#000000;stop-opacity:1" />
    </g>
    <path
       sodipodi:type="star"
       style="font-variation-settings:normal;opacity:1;vector-effect:none;fill:none;fill-opacity:1;fill-rule:evenodd;stroke:#000000;stroke-width:0.4;stroke-linecap:butt;stroke-linejoin:miter;stroke-miterlimit:4;stroke-dasharray:none;stroke-dashoffset:0;stroke-opacity:1;stop-color:#000000;stop-opacity:1"
       id="path13438"
       sodipodi:sides="5"
       sodipodi:cx="84.057097"
       sodipodi:cy="217.70057"
       sodipodi:r1="2.1855707"
       sodipodi:r2="0.03385609"
       sodipodi:arg1="0.22530317"
       sodipodi:arg2="0.85362169"
       inkscape:flatsided="false"
       inkscape:rounded="0"
       inkscape:randomized="0"
       d="m 86.187432,218.18884 -2.108081,-0.46275 0.171693,2.15144 -0.211337,-2.14791 -1.993077,0.82812 1.977468,-0.86473 -1.403483,-1.63962 1.433479,1.61346 1.125677,-1.84146 -1.091529,1.86191 z" />
    <path
       id="rect13440"
       style="font-variation-settings:normal;opacity:1;vector-effect:none;fill:none;fill-opacity:1;fill-rule:evenodd;stroke:#000000;stroke-width:0.4;stroke-linecap:butt;stroke-linejoin:miter;stroke-miterlimit:4;stroke-dasharray:none;stroke-dashoffset:0;stroke-opacity:1;stop-color:#000000;stop-opacity:1"
       d="m 82.589474,226.40468 c -0.467514,0 -0.843878,0.37637 -0.843878,0.84388 v 2.84117 c 0,0.46751 0.376364,0.84388 0.843878,0.84388 0.08375,0 0.163002,-0.0157 0.23926,-0.0382 0.05163,0.009 0.103904,0.0155 0.158131,0.0155 h 2.150255 c 0.514689,0 0.929143,-0.41394 0.929143,-0.92863 0,-0.51468 -0.414454,-0.92914 -0.929143,-0.92914 h -1.124489 c -0.742882,0.086 -0.579282,-0.19635 -0.579282,-0.85237 v -0.95218 c 0,-0.46751 -0.376362,-0.84387 -0.843875,-0.84387 z"
       sodipodi:nodetypes="sssscssssccss" />
    <image
       sodipodi:absref="/var/www/html/new_order115/projects200829/kino/kino101/svgfiles/above/dir1.svg"
       xlink:href="above/dir1.svg"
       y="40.58807"
       x="141.40115"
       preserveAspectRatio="none"
       inkscape:svg-dpi="96"
       width="49.318954"
       height="61.648613"
       id="image13616" />
    <path
       sodipodi:nodetypes="ccccccccccccccc"
       id="path13742"
       d="m 53.170495,203.39963 1.22634,-8.54398 3.55803,8.59696 8.87056,-6.52092 -2.58148,9.01592 5.89285,4.47774 -9.50435,-0.0689 1.30049,11.79139 -5.91294,-6.05142 -4.8666,7.72289 0.0821,-9.56974 -7.44977,4.0647 5.1865,-10.2922 -7.50052,-3.9379 z"
       style="font-variation-settings:normal;opacity:1;vector-effect:none;fill:#ffff00;fill-opacity:0.548492;stroke:#ff0000;stroke-width:0.4;stroke-linecap:butt;stroke-linejoin:miter;stroke-miterlimit:4;stroke-dasharray:none;stroke-dashoffset:0;stroke-opacity:1;stop-color:#000000;stop-opacity:1" />
    <path
       sodipodi:nodetypes="cccccccc"
       inkscape:transform-center-y="28.020271"
       inkscape:transform-center-x="-39.350089"
       id="path13744"
       d="M 143.9095,91.959926 88.8228,60.293107 92.028005,56.323026 77.215456,55.977044 82.235608,68.888939 86.310141,64.38153 139.35343,97.314824 Z"
       style="font-variation-settings:normal;opacity:1;vector-effect:none;fill:#00ffff;fill-opacity:1;stroke:none;stroke-width:0.4;stroke-linecap:butt;stroke-linejoin:miter;stroke-miterlimit:4;stroke-dasharray:none;stroke-dashoffset:0;stroke-opacity:1;stop-color:#000000;stop-opacity:1" />
    <path
       sodipodi:nodetypes="sssscssssccss"
       d="m 47.157545,28.759277 c -3.580406,0 -6.462749,2.882389 -6.462749,6.462764 v 21.758798 c 0,3.58037 2.882343,6.46276 6.462749,6.46276 0.64139,0 1.248333,-0.12024 1.832346,-0.29255 0.395403,0.0689 0.795738,0.11871 1.21103,0.11871 h 16.467497 c 3.94169,0 7.115749,-3.17012 7.115749,-7.11182 0,-3.94162 -3.174059,-7.11572 -7.115749,-7.11572 h -8.611779 c -5.689282,0.65863 -4.436369,-1.503721 -4.436369,-6.52778 v -7.292168 c 0,-3.580375 -2.882327,-6.462688 -6.462725,-6.462688 z"
       style="font-variation-settings:normal;opacity:1;vector-effect:none;fill:none;fill-opacity:1;fill-rule:evenodd;stroke:#000000;stroke-width:3.06336;stroke-linecap:butt;stroke-linejoin:miter;stroke-miterlimit:4;stroke-dasharray:none;stroke-dashoffset:0;stroke-opacity:1;stop-color:#000000;stop-opacity:1"
       id="rect13440-0" />
    <path
       style="font-variation-settings:normal;opacity:1;vector-effect:none;fill:#ffff00;fill-opacity:0.548492;stroke:#ff0000;stroke-width:0.4;stroke-linecap:butt;stroke-linejoin:miter;stroke-miterlimit:4;stroke-dasharray:none;stroke-dashoffset:0;stroke-opacity:1;stop-color:#000000;stop-opacity:1"
       d="m 141.97574,142.50266 1.22634,-8.54398 3.55803,8.59696 8.87056,-6.52092 -2.58148,9.01592 5.89285,4.47774 -9.50435,-0.0689 1.30049,11.79139 -5.91294,-6.05142 -4.8666,7.72289 0.0821,-9.56974 -7.44977,4.0647 5.1865,-10.2922 -7.50052,-3.9379 z"
       id="path13742-6"
       sodipodi:nodetypes="ccccccccccccccc" />
    <rect
       ry="0.92561656"
       y="185.45016"
       x="37.306068"
       height="50.02216"
       width="55.272713"
       id="rect13716"
       style="font-variation-settings:normal;opacity:1;vector-effect:none;fill:#ffffff;fill-opacity:1;fill-rule:evenodd;stroke:#e6e6e6;stroke-width:0.584837;stroke-linecap:butt;stroke-linejoin:miter;stroke-miterlimit:4;stroke-dasharray:none;stroke-dashoffset:0;stroke-opacity:1;stop-color:#000000;stop-opacity:1" />
  </g>
</svg>
